<svg width="609" height="544" viewBox="0 0 609 544" fill="none" xmlns="http://www.w3.org/2000/svg">
<path d="M245.276 334.264C246.772 332.533 248.048 330.964 249.104 329.556C250.189 328.148 251.084 326.725 251.788 325.288H252.36C253.064 325.288 253.724 325.361 254.34 325.508C254.985 325.655 255.308 325.948 255.308 326.388C254.78 327.121 253.827 328.5 252.448 330.524C251.069 332.548 250.38 333.663 250.38 333.868V334C250.38 334.675 250.483 335.041 250.688 335.1L254.472 340.512C254.707 340.893 254.853 341.172 254.912 341.348C255 341.495 255.044 341.715 255.044 342.008C255.044 342.36 254.633 342.653 253.812 342.888C253.02 343.123 252.419 343.24 252.008 343.24C251.832 343.24 250.82 342.067 248.972 339.72C247.153 337.373 246.024 335.833 245.584 335.1L245.54 335.012L245.584 334.792H245.276V334.264ZM252.58 326.652C252.404 326.799 252.228 327.077 252.052 327.488C252.052 327.488 252.052 327.503 252.052 327.532C252.052 327.532 252.067 327.532 252.096 327.532C252.184 327.532 252.316 327.473 252.492 327.356C252.668 327.239 252.785 327.092 252.844 326.916L252.58 326.652ZM252.052 328.5C251.612 328.5 251.201 328.749 250.82 329.248C250.439 329.717 250.131 330.201 249.896 330.7C250.307 330.7 250.761 330.465 251.26 329.996C251.788 329.497 252.052 329.101 252.052 328.808V328.5ZM249.764 331.756C249.412 331.756 249.119 331.903 248.884 332.196C248.679 332.46 248.576 332.768 248.576 333.12H249.06L249.896 331.8L249.764 331.756ZM248.224 333.428C247.813 333.428 247.476 333.589 247.212 333.912C246.948 334.205 246.816 334.528 246.816 334.88C246.875 334.88 247.08 334.895 247.432 334.924C247.784 334.924 248.092 334.88 248.356 334.792C248.649 334.675 248.796 334.499 248.796 334.264C248.796 334.088 248.752 333.912 248.664 333.736C248.576 333.56 248.429 333.457 248.224 333.428ZM248.796 335.1C248.209 335.1 247.74 335.364 247.388 335.892C247.769 335.892 248.048 335.848 248.224 335.76C248.4 335.643 248.591 335.423 248.796 335.1ZM249.324 336.156C248.884 336.42 248.664 336.801 248.664 337.3C248.987 337.3 249.265 337.212 249.5 337.036C249.764 336.86 249.896 336.625 249.896 336.332C249.896 336.068 249.881 335.877 249.852 335.76C249.823 335.643 249.735 335.496 249.588 335.32C249.559 335.349 249.353 335.437 248.972 335.584C248.62 335.731 248.371 335.921 248.224 336.156H249.324ZM250.292 336.948C250.087 336.948 249.925 337.08 249.808 337.344C249.691 337.608 249.617 337.755 249.588 337.784L249.896 337.828C250.072 337.828 250.248 337.799 250.424 337.74C250.629 337.652 250.732 337.535 250.732 337.388C250.732 337.3 250.673 337.212 250.556 337.124C250.468 337.007 250.38 336.948 250.292 336.948ZM250.424 338.312H250.248C249.925 338.312 249.705 338.4 249.588 338.576L249.896 338.884L250.424 338.312ZM250.688 339.94C250.835 340.087 251.084 340.395 251.436 340.864C251.553 340.981 251.671 341.128 251.788 341.304C251.935 341.48 252.023 341.568 252.052 341.568L253.152 341.04H252.316C252.375 340.981 252.433 340.864 252.492 340.688C252.551 340.483 252.58 340.321 252.58 340.204C252.551 340.087 252.331 339.793 251.92 339.324C251.539 338.825 251.319 338.576 251.26 338.576C250.849 338.576 250.468 338.767 250.116 339.148C250.175 339.353 250.395 339.456 250.776 339.456C251.011 339.456 251.157 339.441 251.216 339.412L250.688 339.94ZM263.833 347.464C263.833 347.229 263.745 347.053 263.569 346.936C264.127 346.203 264.405 345.572 264.405 345.044C264.464 344.663 264.596 344.12 264.801 343.416C265.007 342.712 265.139 342.36 265.197 342.36L265.725 341.788L271.401 331.712L273.293 327.972C273.293 327.62 274.188 325.215 275.977 320.756L276.813 318.688C277.341 317.603 277.752 316.84 278.045 316.4C278.339 315.931 278.837 315.447 279.541 314.948C279.747 315.036 280.128 315.109 280.685 315.168C281.243 315.227 281.727 315.329 282.137 315.476C282.577 315.623 282.988 315.887 283.369 316.268C283.369 316.532 283.12 317.353 282.621 318.732C282.123 320.081 281.58 321.387 280.993 322.648C280.436 323.909 280.055 324.599 279.849 324.716L279.541 324.408L278.749 326.08L279.233 325.772L273.029 338.268L272.501 338.796H273.205L271.181 342.36L271.093 342.316C270.888 342.316 270.521 343.02 269.993 344.428C269.583 345.455 269.231 346.247 268.937 346.804C268.673 347.361 268.409 347.669 268.145 347.728L267.573 347.772C267.163 347.772 266.796 347.757 266.473 347.728C266.18 347.699 265.931 347.669 265.725 347.64C264.904 347.523 264.273 347.464 263.833 347.464ZM265.417 344.912C265.505 345.029 265.696 345.161 265.989 345.308C266.312 345.484 266.547 345.572 266.693 345.572C266.811 345.572 266.913 345.469 267.001 345.264C267.089 345.059 267.251 344.956 267.485 344.956C267.603 344.956 267.705 344.971 267.793 345C267.911 345.029 268.013 345.044 268.101 345.044C268.395 345.044 268.6 344.809 268.717 344.34H267.353C267.705 344.193 267.984 344.047 268.189 343.9C268.541 343.636 268.893 343.475 269.245 343.416C269.451 343.093 269.861 342.375 270.477 341.26C271.123 340.116 271.621 339.207 271.973 338.532C272.267 337.417 272.443 336.787 272.501 336.64C272.56 336.464 272.663 336.259 272.809 336.024C272.956 335.789 273.059 335.613 273.117 335.496C273.411 335.085 273.631 334.719 273.777 334.396C273.924 334.044 273.997 333.692 273.997 333.34H273.293C273.499 333.311 273.601 333.223 273.601 333.076C273.601 333.017 273.587 332.944 273.557 332.856C273.528 332.768 273.513 332.68 273.513 332.592C273.631 332.592 273.719 332.592 273.777 332.592C273.836 332.563 273.88 332.548 273.909 332.548C274.027 332.548 274.203 332.651 274.437 332.856C274.76 332.416 274.921 331.991 274.921 331.58C274.951 331.316 274.995 331.111 275.053 330.964C275.112 330.817 275.259 330.627 275.493 330.392C275.699 330.128 276.021 329.644 276.461 328.94C276.931 328.207 277.371 327.444 277.781 326.652C278.221 325.86 278.441 325.288 278.441 324.936C278.441 324.877 278.265 324.76 277.913 324.584C277.561 324.408 277.385 324.217 277.385 324.012L277.429 323.88L278.617 324.452C278.94 324.452 279.204 324.232 279.409 323.792C279.615 323.352 279.82 322.721 280.025 321.9C280.172 321.313 280.319 320.873 280.465 320.58C280.612 320.257 280.759 320.096 280.905 320.096C280.964 320.096 281.243 319.099 281.741 317.104L281.785 317.016C281.785 316.84 281.492 316.708 280.905 316.62C280.348 316.532 279.879 316.488 279.497 316.488C279.497 316.781 279.615 316.987 279.849 317.104C279.145 317.28 278.559 317.749 278.089 318.512C277.649 319.245 277.429 320.008 277.429 320.8C277.429 320.888 277.517 321.005 277.693 321.152C277.869 321.269 278.045 321.372 278.221 321.46C278.133 321.431 278.016 321.416 277.869 321.416C277.459 321.416 277.136 321.621 276.901 322.032C276.696 322.413 276.593 322.839 276.593 323.308C276.593 323.367 276.623 323.44 276.681 323.528C276.74 323.587 276.784 323.616 276.813 323.616C276.52 323.704 276.256 323.939 276.021 324.32C275.816 324.672 275.64 324.877 275.493 324.936L273.865 329.292C273.865 329.615 273.704 330.084 273.381 330.7C273.059 331.287 272.545 332.181 271.841 333.384C271.372 334.176 270.917 334.968 270.477 335.76C270.067 336.523 269.832 337.08 269.773 337.432V337.828C269.773 337.887 269.597 338.092 269.245 338.444C268.893 338.767 268.717 339.075 268.717 339.368C268.717 339.397 268.747 339.456 268.805 339.544C268.864 339.603 268.923 339.632 268.981 339.632C268.659 339.632 268.263 339.94 267.793 340.556C267.324 341.143 266.899 341.817 266.517 342.58C266.165 343.313 265.989 343.812 265.989 344.076C265.989 344.311 266.019 344.501 266.077 344.648C266.136 344.765 266.283 344.853 266.517 344.912H265.417ZM272.237 339.632C272.061 339.925 271.973 340.189 271.973 340.424C272.149 340.101 272.237 339.837 272.237 339.632ZM270.345 340.204C270.14 340.204 269.861 340.101 269.509 339.896H270.345V340.204ZM264.625 345.88C264.42 345.968 264.317 346.129 264.317 346.364H267.353C267.471 346.364 267.603 346.247 267.749 346.012C267.925 345.807 268.013 345.645 268.013 345.528C267.632 345.528 267.089 345.587 266.385 345.704C265.74 345.821 265.153 345.88 264.625 345.88ZM298.428 334.616C298.428 334.792 298.37 334.924 298.252 335.012C298.135 335.1 297.93 335.232 297.636 335.408C297.196 336.171 296.126 337.667 294.424 339.896C292.723 342.125 291.784 343.24 291.608 343.24C291.198 343.24 290.582 343.123 289.76 342.888C288.968 342.653 288.572 342.36 288.572 342.008C288.572 341.715 288.602 341.495 288.66 341.348C288.748 341.172 288.91 340.893 289.144 340.512L292.928 335.1C293.134 335.041 293.236 334.733 293.236 334.176V333.956C293.236 333.751 293.134 333.472 292.928 333.12C292.576 332.533 291.946 331.595 291.036 330.304L289.144 327.488C288.822 327.253 288.602 327.077 288.484 326.96C288.367 326.813 288.308 326.623 288.308 326.388C288.308 325.948 288.616 325.655 289.232 325.508C289.878 325.361 290.552 325.288 291.256 325.288H291.828C292.532 326.725 293.412 328.148 294.468 329.556C295.554 330.964 296.844 332.533 298.34 334.264L298.428 334.616ZM290.772 326.916C290.831 327.092 290.948 327.239 291.124 327.356C291.3 327.473 291.432 327.532 291.52 327.532C291.55 327.532 291.564 327.532 291.564 327.532C291.564 327.503 291.564 327.488 291.564 327.488C291.388 327.077 291.212 326.799 291.036 326.652L290.772 326.916ZM291.564 328.808C291.564 329.101 291.814 329.497 292.312 329.996C292.84 330.465 293.31 330.7 293.72 330.7C293.486 330.201 293.178 329.717 292.796 329.248C292.415 328.749 292.004 328.5 291.564 328.5V328.808ZM293.72 331.8L294.556 333.12H295.04C295.04 332.768 294.923 332.46 294.688 332.196C294.483 331.903 294.204 331.756 293.852 331.756L293.72 331.8ZM295.392 333.428C295.187 333.457 295.04 333.56 294.952 333.736C294.864 333.912 294.82 334.088 294.82 334.264C294.82 334.557 294.982 334.733 295.304 334.792C295.627 334.851 295.935 334.88 296.228 334.88C296.522 334.88 296.712 334.88 296.8 334.88C296.8 334.528 296.668 334.205 296.404 333.912C296.14 333.589 295.803 333.428 295.392 333.428ZM294.82 335.1C295.026 335.423 295.216 335.643 295.392 335.76C295.568 335.848 295.847 335.892 296.228 335.892C295.876 335.364 295.407 335.1 294.82 335.1ZM295.392 336.156C295.246 335.921 294.982 335.731 294.6 335.584C294.248 335.437 294.058 335.349 294.028 335.32C293.882 335.467 293.794 335.613 293.764 335.76C293.735 335.877 293.72 336.068 293.72 336.332C293.72 336.625 293.838 336.86 294.072 337.036C294.336 337.212 294.63 337.3 294.952 337.3C294.952 336.801 294.732 336.42 294.292 336.156H295.392ZM293.324 336.948C293.236 336.948 293.134 337.007 293.016 337.124C292.928 337.212 292.884 337.3 292.884 337.388C292.884 337.535 292.972 337.652 293.148 337.74C293.354 337.799 293.544 337.828 293.72 337.828L294.028 337.784C293.999 337.755 293.926 337.608 293.808 337.344C293.691 337.08 293.53 336.948 293.324 336.948ZM294.028 338.576C293.911 338.4 293.691 338.312 293.368 338.312H293.192L293.72 338.884L294.028 338.576ZM292.4 339.412C292.459 339.441 292.606 339.456 292.84 339.456C293.222 339.456 293.442 339.353 293.5 339.148C293.148 338.767 292.767 338.576 292.356 338.576C292.298 338.576 292.063 338.825 291.652 339.324C291.271 339.793 291.066 340.087 291.036 340.204C291.036 340.321 291.066 340.483 291.124 340.688C291.183 340.864 291.242 340.981 291.3 341.04H290.464L291.564 341.568C291.594 341.568 291.667 341.48 291.784 341.304C291.931 341.128 292.063 340.981 292.18 340.864C292.532 340.395 292.782 340.087 292.928 339.94L292.4 339.412Z" fill="white"/>
<path d="M58 17.5H57H2V219.5C6.33333 253.833 35.1 324.7 115.5 333.5H477.5C511.167 339.333 581 370.7 591 449.5V519" stroke="#05F283" stroke-width="4"/>
<circle cx="65.5" cy="17.5" r="8.5" fill="#F2F2F2"/>
<circle cx="65.5" cy="17.5" r="13" stroke="#05F283" stroke-opacity="0.5" stroke-width="9"/>
<circle cx="591.5" cy="526.5" r="8.5" fill="#F2F2F2"/>
<circle cx="591.5" cy="526.5" r="13" stroke="#05F283" stroke-opacity="0.5" stroke-width="9"/>
</svg>
