<svg width="18" height="22" viewBox="0 0 18 22" fill="none" xmlns="http://www.w3.org/2000/svg">
<g clip-path="url(#clip0_141_60)">
<path d="M12.43 3.57047C13.7022 4.35801 14.1145 6.00276 13.3495 7.23864L11.5599 10.1296L12.9735 11.0046L14.7631 8.11367C15.9979 6.11893 15.3335 3.46838 13.28 2.19728C11.2266 0.926175 8.55794 1.51348 7.32315 3.50823L5.53361 6.39917L6.94719 7.2742L8.73674 4.38326C9.50177 3.14739 11.1578 2.78294 12.43 3.57047ZM9.85173 6.07314L6.27264 11.855L7.76063 12.7761L11.3397 6.99423L9.85173 6.07314ZM10.2892 15.341L12.0788 12.4501L10.6652 11.575L8.87563 14.466C8.1106 15.7019 6.45458 16.0663 5.18235 15.2788C3.91013 14.4912 3.49785 12.8465 4.26288 11.6106L6.05242 8.71967L4.63884 7.84464L2.84929 10.7356C1.61451 12.7303 2.2789 15.3809 4.33232 16.652C6.38574 17.9231 9.05442 17.3358 10.2892 15.341Z" fill="#808080"/>
</g>
<defs>
<clipPath id="clip0_141_60">
<rect width="18" height="21" fill="white" transform="translate(0 0.5)"/>
</clipPath>
</defs>
</svg>
